<?xml version="1.0" encoding="UTF-8"?>
<svg version="1.1" xmlns="http://www.w3.org/2000/svg" width="512" height="512">
<path d="M0 0 C1.5945845 -0.00462198 3.18916472 -0.01098351 4.78373623 -0.01890898 C9.11782307 -0.03544763 13.45155293 -0.02742731 17.78564024 -0.0149641 C22.47830211 -0.00585185 27.17090588 -0.01991373 31.86355591 -0.03088379 C41.03762906 -0.04860813 50.21157081 -0.04485626 59.38564897 -0.03323323 C66.84604861 -0.02417513 74.30641161 -0.02298515 81.76681519 -0.02732849 C82.83131722 -0.02794142 83.89581925 -0.02855436 84.99257892 -0.02918586 C87.15554469 -0.03046485 89.31851044 -0.0317617 91.48147619 -0.03307623 C111.7318906 -0.0444642 131.9822324 -0.03139634 152.2326349 -0.00987476 C169.58326755 0.00799458 186.93379312 0.00488997 204.28442383 -0.0135498 C224.46567705 -0.03498805 244.64686675 -0.04336573 264.82812977 -0.03110075 C266.98284212 -0.02982664 269.13755448 -0.02856916 271.29226685 -0.02732849 C272.88222989 -0.02640284 272.88222989 -0.02640284 274.50431341 -0.02545848 C281.9499839 -0.02201445 289.39561387 -0.02781347 296.84127808 -0.0372467 C305.92332652 -0.04850095 315.00523679 -0.0453549 324.08726954 -0.02412373 C328.71514912 -0.01365926 333.34279889 -0.0094123 337.97067642 -0.02272034 C342.21713888 -0.03474628 346.46316115 -0.02791604 350.70958436 -0.00681013 C352.23562126 -0.00238684 353.76169632 -0.00451252 355.28770816 -0.01431328 C368.5846188 -0.09307937 381.84777767 1.80638271 393.77954102 8.07043457 C394.43301514 8.40559082 395.08648926 8.74074707 395.75976562 9.08605957 C402.69469754 12.83750815 408.090722 17.86860609 413.52954102 23.50793457 C414.5253418 24.4573291 414.5253418 24.4573291 415.54125977 25.42590332 C419.4900833 29.44571694 422.12654034 34.05039686 424.71704102 39.00793457 C425.03833984 39.60565674 425.35963867 40.20337891 425.69067383 40.81921387 C431.82009603 53.20007625 433.12475392 66.38886244 433.03747559 79.97839355 C433.04209756 81.57297806 433.0484591 83.16755828 433.05638456 84.76212978 C433.07292321 89.09621662 433.0649029 93.42994648 433.05243969 97.76403379 C433.04332743 102.45669567 433.05738931 107.14929943 433.06835938 111.84194946 C433.08608372 121.01602261 433.08233184 130.18996436 433.07070881 139.36404252 C433.06165071 146.82444217 433.06046074 154.28480516 433.06480408 161.74520874 C433.06541701 162.80971077 433.06602994 163.87421281 433.06666145 164.97097248 C433.06794043 167.13393824 433.06923729 169.296904 433.07055181 171.45986974 C433.08193979 191.71028415 433.06887192 211.96062596 433.04735035 232.21102846 C433.029481 249.5616611 433.03258561 266.91218667 433.05102539 284.26281738 C433.07246364 304.4440706 433.08084132 324.6252603 433.06857634 344.80652332 C433.06730223 346.96123567 433.06604474 349.11594803 433.06480408 351.2706604 C433.06418698 352.33063577 433.06356987 353.39061113 433.06293407 354.48270696 C433.05949003 361.92837745 433.06528906 369.37400742 433.07472229 376.81967163 C433.08597653 385.90172007 433.08283048 394.98363035 433.06159931 404.0656631 C433.05113485 408.69354268 433.04688789 413.32119244 433.06019592 417.94906998 C433.07222187 422.19553244 433.06539163 426.4415547 433.04428571 430.68797791 C433.03986243 432.21401482 433.0419881 433.74008987 433.05178887 435.26610172 C433.13055495 448.56301236 431.23109288 461.82617123 424.96704102 473.75793457 C424.63188477 474.41140869 424.29672852 475.06488281 423.95141602 475.73815918 C420.19996743 482.67309109 415.16886949 488.06911555 409.52954102 493.50793457 C408.58014648 494.50373535 408.58014648 494.50373535 407.61157227 495.51965332 C403.59175864 499.46847686 398.98707873 502.1049339 394.02954102 504.69543457 C393.43181885 505.0167334 392.83409668 505.33803223 392.21826172 505.66906738 C379.83739934 511.79848959 366.64861315 513.10314747 353.05908203 513.01586914 C351.46449753 513.02049112 349.86991731 513.02685265 348.2753458 513.03477812 C343.94125896 513.05131677 339.6075291 513.04329645 335.27344179 513.03083324 C330.58077992 513.02172099 325.88817616 513.03578287 321.19552612 513.04675293 C312.02145297 513.06447728 302.84751122 513.0607254 293.67343307 513.04910237 C286.21303342 513.04004427 278.75267042 513.03885429 271.29226685 513.04319763 C270.22776481 513.04381056 269.16326278 513.0444235 268.06650311 513.045055 C265.90353734 513.04633399 263.74057159 513.04763084 261.57760584 513.04894537 C241.32719144 513.06033334 221.07684963 513.04726548 200.82644713 513.0257439 C183.47581449 513.00787456 166.12528892 513.01097917 148.7746582 513.02941895 C128.59340498 513.05085719 108.41221528 513.05923487 88.23095226 513.04696989 C86.07623991 513.04569578 83.92152755 513.0444383 81.76681519 513.04319763 C80.70683982 513.04258053 79.64686445 513.04196343 78.55476862 513.04132763 C71.10909813 513.03788359 63.66346817 513.04368261 56.21780396 513.05311584 C47.13575551 513.06437009 38.05384524 513.06122404 28.97181249 513.03999287 C24.34393291 513.0295284 19.71628314 513.02528144 15.08840561 513.03858948 C10.84194315 513.05061542 6.59592088 513.04378518 2.34949768 513.02267927 C0.82346077 513.01825598 -0.70261429 513.02038166 -2.22862613 513.03018242 C-15.52553677 513.10894851 -28.78869564 511.20948643 -40.72045898 504.94543457 C-41.70067017 504.4427002 -41.70067017 504.4427002 -42.70068359 503.92980957 C-49.6356155 500.17836099 -55.03163996 495.14726305 -60.47045898 489.50793457 C-61.13432617 488.87500488 -61.79819336 488.2420752 -62.48217773 487.58996582 C-66.43100127 483.5701522 -69.06745831 478.96547228 -71.65795898 474.00793457 C-72.13990723 473.11135132 -72.13990723 473.11135132 -72.6315918 472.19665527 C-78.761014 459.81579289 -80.06567189 446.6270067 -79.97839355 433.03747559 C-79.98301553 431.44289108 -79.98937706 429.84831086 -79.99730253 428.25373936 C-80.01384118 423.91965252 -80.00582086 419.58592266 -79.99335766 415.25183535 C-79.9842454 410.55917347 -79.99830728 405.86656971 -80.00927734 401.17391968 C-80.02700169 391.99984653 -80.02324981 382.82590478 -80.01162678 373.65182662 C-80.00256868 366.19142697 -80.00137871 358.73106398 -80.00572205 351.2706604 C-80.00633498 350.20615837 -80.00694791 349.14165633 -80.00757942 348.04489666 C-80.0088584 345.8819309 -80.01015526 343.71896514 -80.01146978 341.5559994 C-80.02285776 321.30558499 -80.00978989 301.05524318 -79.98826832 280.80484068 C-79.97039897 263.45420804 -79.97350358 246.10368247 -79.99194336 228.75305176 C-80.01338161 208.57179854 -80.02175929 188.39060884 -80.0094943 168.20934582 C-80.0082202 166.05463347 -80.00696271 163.89992111 -80.00572205 161.74520874 C-80.00510494 160.68523337 -80.00448784 159.62525801 -80.00385204 158.53316218 C-80.000408 151.08749169 -80.00620703 143.64186172 -80.01564026 136.19619751 C-80.0268945 127.11414907 -80.02374845 118.03223879 -80.00251728 108.95020604 C-79.99205282 104.32232646 -79.98780585 99.6946767 -80.00111389 95.06679916 C-80.01313984 90.8203367 -80.0063096 86.57431444 -79.98520368 82.32789123 C-79.98078039 80.80185432 -79.98290607 79.27577927 -79.99270684 77.74976742 C-80.07147292 64.45285678 -78.17201085 51.18969791 -71.90795898 39.25793457 C-71.57280273 38.60446045 -71.23764648 37.95098633 -70.89233398 37.27770996 C-67.1408854 30.34277805 -62.10978746 24.94675359 -56.47045898 19.50793457 C-55.8375293 18.84406738 -55.20459961 18.1802002 -54.55249023 17.49621582 C-50.53267661 13.54739228 -45.9279967 10.91093524 -40.97045898 8.32043457 C-40.37273682 7.99913574 -39.77501465 7.67783691 -39.15917969 7.34680176 C-26.77831731 1.21737955 -13.58953112 -0.08727833 0 0 Z " fill="#FDFDFD" transform="translate(79.470458984375,-0.5079345703125)"/>
<path d="M0 0 C0.33 0 0.66 0 1 0 C3.15150622 8.35232695 3.36292072 16.53829954 3.3125 25.125 C3.30968018 25.81519226 3.30686035 26.50538452 3.30395508 27.2164917 C3.08377853 63.03983989 -12.35121389 91.20878436 -36.61865234 116.55566406 C-37.84508039 117.83801618 -39.05829487 119.13297661 -40.26953125 120.4296875 C-46.59955824 127.02982696 -53.71357464 132.51244797 -61 138 C-61.5475293 138.41894531 -62.09505859 138.83789062 -62.65917969 139.26953125 C-78.01366295 150.97349309 -94.90316401 160.24853112 -112.90283203 167.18896484 C-114.79729399 167.92160776 -116.67885787 168.68739186 -118.55859375 169.45703125 C-134.15349563 175.53702244 -150.35348891 177.78541861 -167 177 C-163.34996699 174.56664466 -159.6996842 173.82627468 -155.5 172.8125 C-140.23508749 168.93817898 -125.83239832 163.47598073 -111.94726562 156.04150391 C-110.64569487 155.34535285 -109.33962929 154.65754314 -108.02929688 153.97802734 C-81.40106549 140.15889347 -55.91710807 118.00956547 -37.31445312 94.63525391 C-35.84635738 92.80885991 -34.35459477 91.0034686 -32.859375 89.19921875 C-14.11165927 66.52181484 -4.73928839 45.72791974 -1.75 16.5 C-1.57654497 14.88660832 -1.40207014 13.27332594 -1.2265625 11.66015625 C-0.80600826 7.77458973 -0.39904806 3.88783155 0 0 Z " fill="#22248A" transform="translate(369,108)"/>
<path d="M0 0 C-2.30871517 2.30871517 -4.09289455 2.94550843 -7.13671875 4.1015625 C-8.70401733 4.70665649 -8.70401733 4.70665649 -10.30297852 5.32397461 C-11.41987061 5.75331299 -12.5367627 6.18265137 -13.6875 6.625 C-39.75090915 16.88468842 -61.25987419 32.12448447 -81.84375 51.02734375 C-83.86241634 52.87413089 -85.92083841 54.65948681 -88 56.4375 C-95.62445448 63.11081529 -102.47990957 70.30919343 -108.7890625 78.234375 C-110.23274345 80.04025153 -111.70586137 81.82308923 -113.2109375 83.578125 C-132.53838788 106.22854054 -142.00628971 132.409142 -144 162 C-144.66 162 -145.32 162 -146 162 C-152.98795737 137.79371568 -145.09419189 111.48754546 -133.375 90.0625 C-125.47251248 76.08152322 -116.21580585 63.48205643 -105 52 C-104.21367187 51.15179688 -103.42734375 50.30359375 -102.6171875 49.4296875 C-79.75028802 25.35529498 -45.80446892 11.56527525 -14.5 2.5 C-13.62182617 2.24460449 -12.74365234 1.98920898 -11.83886719 1.72607422 C-7.81514431 0.6055737 -4.2206614 -0.34595585 0 0 Z " fill="#22248A" transform="translate(292,92)"/>
<path d="M0 0 C8.25 0 16.5 0 25 0 C25.33 2.97 25.66 5.94 26 9 C27.43942641 13.87541965 27.43942641 13.87541965 31 17 C31.28875 16.0925 31.5775 15.185 31.875 14.25 C33 11 33 11 34.125 9.0625 C35.45564149 6.29939309 35.45564149 6.29939309 35 0 C43.25 0 51.5 0 60 0 C59 3 59 3 57 4 C57 19.18 57 34.36 57 50 C57.99 50.33 58.98 50.66 60 51 C60 51.66 60 52.32 60 53 C51.75 53 43.5 53 35 53 C35.33 52.01 35.66 51.02 36 50 C36.66 49.67 37.32 49.34 38 49 C38 38.11 38 27.22 38 16 C34.5057764 23.4749543 34.5057764 23.4749543 31.0300293 30.95849609 C30.37127808 32.35189209 30.37127808 32.35189209 29.69921875 33.7734375 C29.03152466 35.20308838 29.03152466 35.20308838 28.3503418 36.66162109 C27 39 27 39 24 41 C19.71 32.42 15.42 23.84 11 15 C11 26.55 11 38.1 11 50 C12.32 50.33 13.64 50.66 15 51 C15 51.66 15 52.32 15 53 C9.72 53 4.44 53 -1 53 C-0.67 52.01 -0.34 51.02 0 50 C0.99 49.505 0.99 49.505 2 49 C2 34.15 2 19.3 2 4 C1.34 3.67 0.68 3.34 0 3 C0 2.01 0 1.02 0 0 Z " fill="#E52317" transform="translate(290,311)"/>
<path d="M0 0 C7.92 0 15.84 0 24 0 C23.67 2.31 23.34 4.62 23 7 C23.24390212 9.14236031 23.24390212 9.14236031 23.94042969 11.00415039 C24.17107117 11.70500259 24.40171265 12.4058548 24.63934326 13.12794495 C24.89757874 13.86044968 25.15581421 14.59295441 25.421875 15.34765625 C25.8128537 16.51004066 25.8128537 16.51004066 26.21173096 17.69590759 C26.76305211 19.3261072 27.3215169 20.95390649 27.88671875 22.5793457 C28.74698867 25.05383817 29.5862877 27.53465504 30.421875 30.01757812 C30.96233408 31.60718192 31.50396215 33.19638884 32.046875 34.78515625 C32.29701355 35.51968521 32.5471521 36.25421417 32.80487061 37.01100159 C34.98473244 44.62937344 34.98473244 44.62937344 40 50 C40 50.99 40 51.98 40 53 C31.42 53 22.84 53 14 53 C14.66 51.68 15.32 50.36 16 49 C16.54959581 44.68174724 16.58214557 42.7761941 13.9375 39.25 C9.13604987 35.57229352 5.03264097 33.80373257 -1 34 C-1.508783 35.55966218 -2.00663469 37.12289241 -2.5 38.6875 C-2.7784375 39.55761719 -3.056875 40.42773438 -3.34375 41.32421875 C-4.01446538 44.05898085 -4.34315103 46.20236594 -4 49 C-3.01 49.66 -2.02 50.32 -1 51 C-1 51.66 -1 52.32 -1 53 C-6.94 53 -12.88 53 -19 53 C-18 50 -18 50 -15.6730957 47.91723633 C-12.1478059 44.06997284 -10.88501462 40.2111853 -9.23046875 35.32421875 C-8.90460281 34.3990596 -8.57873688 33.47390045 -8.24299622 32.52070618 C-7.21095361 29.58083226 -6.19901722 26.63449109 -5.1875 23.6875 C-4.48894836 21.68638833 -3.78909252 19.68573142 -3.08789062 17.68554688 C-1.37677963 12.79550178 0.31634019 7.89956093 2 3 C1.34 3 0.68 3 0 3 C0 2.01 0 1.02 0 0 Z " fill="#E52317" transform="translate(235,311)"/>
<path d="M0 0 C7.92 0 15.84 0 24 0 C23.67 2.31 23.34 4.62 23 7 C23.31516602 9.36846562 23.31516602 9.36846562 24.1081543 11.51074219 C24.37560959 12.32138123 24.64306488 13.13202026 24.91862488 13.96722412 C25.21747086 14.81850891 25.51631683 15.6697937 25.82421875 16.546875 C26.12689163 17.43989319 26.42956451 18.33291138 26.7414093 19.25299072 C27.38230308 21.13132407 28.03074606 23.00709664 28.6862793 24.88037109 C29.68679219 27.74797132 30.65637044 30.62474753 31.62304688 33.50390625 C32.25078344 35.33135561 32.88028092 37.15820124 33.51171875 38.984375 C33.80044357 39.84375671 34.0891684 40.70313843 34.38664246 41.58856201 C35.92059281 45.91084112 36.90540115 48.56085549 41 51 C41 51.66 41 52.32 41 53 C32.09 53 23.18 53 14 53 C14.66 51.68 15.32 50.36 16 49 C16.54959581 44.68174724 16.58214557 42.7761941 13.9375 39.25 C9.30482619 35.70156899 4.92869223 33.46102798 -1 34 C-3.76185089 41.2882636 -3.76185089 41.2882636 -4 49 C-3.34 49.99 -2.68 50.98 -2 52 C-7.61 52 -13.22 52 -19 52 C-18.08976074 51.04859131 -17.17952148 50.09718262 -16.24169922 49.11694336 C-12.59043632 44.84401657 -10.90933097 40.40556651 -9.1328125 35.12890625 C-8.80836151 34.206577 -8.48391052 33.28424774 -8.14962769 32.33396912 C-7.12660076 29.4150641 -6.12554108 26.48917906 -5.125 23.5625 C-4.43113072 21.57046025 -3.73583205 19.57891778 -3.0390625 17.58789062 C-1.34279382 12.73085377 0.33382942 7.86743966 2 3 C1.34 3 0.68 3 0 3 C0 2.01 0 1.02 0 0 Z " fill="#E52316" transform="translate(381,311)"/>
<path d="M0 0 C8.58 0 17.16 0 26 0 C25 3 25 3 22.96850586 4.69335938 C20.21891061 7.91525891 20.44190468 10.86411428 20.50390625 14.90625 C20.50245102 15.66796509 20.50099579 16.42968018 20.49949646 17.21447754 C20.50115311 18.8215722 20.5126884 20.4286831 20.53344727 22.03564453 C20.56240449 24.49189826 20.55405254 26.94599269 20.54101562 29.40234375 C20.54725349 30.9661563 20.55564482 32.52996204 20.56640625 34.09375 C20.56347061 34.82613892 20.56053497 35.55852783 20.55751038 36.31311035 C20.61563947 39.46385058 20.82370452 41.68266814 22.3671875 44.4609375 C24.68617153 46.64677412 26.29571039 46.53410355 29.4375 46.5 C33.12922493 46.37320364 34.57424237 46.30411259 37.625 44.125 C40.2078631 40.13330248 40.15403057 36.9589185 40.125 32.3125 C40.12234131 31.55880127 40.11968262 30.80510254 40.11694336 30.02856445 C40.4311959 16.79057469 40.4311959 16.79057469 38 4 C36.0162233 2.71563266 36.0162233 2.71563266 34 2 C34 1.34 34 0.68 34 0 C39.94 0 45.88 0 52 0 C51 3 51 3 48 5 C47.75694082 7.47536079 47.69941323 9.69819707 47.77734375 12.16796875 C47.78633194 12.88100662 47.79532013 13.59404449 47.80458069 14.32868958 C47.83465505 16.61544922 47.88437421 18.90116784 47.9375 21.1875 C47.98551772 23.45591518 48.02891798 25.72403455 48.05970764 27.99275208 C48.07926368 29.40430174 48.10865857 30.81576235 48.14964294 32.22685242 C48.23611688 37.97500004 47.35625437 42.86874314 44.25 47.75 C38.25372504 53.74627496 31.12963763 54.19007697 23.0625 54.25 C22.37220703 54.270625 21.68191406 54.29125 20.97070312 54.3125 C15.04791687 54.35741212 11.1380629 52.84913548 6.6875 49 C4.25415648 46.11603731 3.8751673 43.63257636 3.79467773 39.98754883 C3.77473251 39.18694534 3.75478729 38.38634186 3.73423767 37.56147766 C3.71752518 36.70201035 3.70081268 35.84254303 3.68359375 34.95703125 C3.66281265 34.0734343 3.64203156 33.18983734 3.62062073 32.27946472 C3.55524246 29.45722215 3.49629472 26.63488665 3.4375 23.8125 C3.39430363 21.89907894 3.35068898 19.98566727 3.30664062 18.07226562 C3.19957305 13.38160563 3.09827248 8.69085217 3 4 C2.01 3.67 1.02 3.34 0 3 C0 2.01 0 1.02 0 0 Z " fill="#E52013" transform="translate(98,311)"/>
<path d="M0 0 C15.18 0 30.36 0 46 0 C46.99 5.61 47.98 11.22 49 17 C48.01 17 47.02 17 46 17 C45.401875 16.0925 44.80375 15.185 44.1875 14.25 C41.33844059 10.01711174 38.34461033 7.52745225 33.30859375 6.39453125 C32.54675781 6.26433594 31.78492188 6.13414062 31 6 C31.04412923 11.90875208 31.11393803 17.81643318 31.20751953 23.72460938 C31.23573807 25.73428827 31.25694821 27.74407834 31.27099609 29.75390625 C31.29241335 32.64380849 31.33905703 35.5323729 31.390625 38.421875 C31.39185364 39.31992859 31.39308228 40.21798218 31.39434814 41.14324951 C31.41406677 41.98381897 31.4337854 42.82438843 31.45410156 43.69042969 C31.46298401 44.42767273 31.47186646 45.16491577 31.48101807 45.92449951 C31.97657804 48.662517 31.97657804 48.662517 36 52 C27.42 52 18.84 52 10 52 C10.99 51.01 11.98 50.02 13 49 C13.88565586 46.34303242 14.1450262 44.71809917 14.20532227 41.98754883 C14.22526749 41.18694534 14.24521271 40.38634186 14.26576233 39.56147766 C14.28247482 38.70201035 14.29918732 37.84254303 14.31640625 36.95703125 C14.33718735 36.0734343 14.35796844 35.18983734 14.37937927 34.27946472 C14.44475754 31.45722215 14.50370528 28.63488665 14.5625 25.8125 C14.60569637 23.89907894 14.64931102 21.98566727 14.69335938 20.07226562 C14.80042695 15.38160563 14.90172752 10.69085217 15 6 C13.54877491 6.45326089 12.10001452 6.91441832 10.65234375 7.37890625 C9.84531006 7.63486572 9.03827637 7.8908252 8.20678711 8.15454102 C4.44665741 9.59511289 2.66059279 11.81093298 0.75 15.25 C0.5025 15.8275 0.255 16.405 0 17 C-0.66 17 -1.32 17 -2 17 C-2.27099712 10.76706632 -1.29643142 6.48215712 0 0 Z " fill="#E52013" transform="translate(165,311)"/>
<path d="M0 0 C4.8537086 4.61102317 6.74716072 7.69286899 6.9375 14.4375 C6.93161779 19.00797623 6.17231131 21.64918134 3.5 25.375 C-1.89473427 30.21642819 -5.84170998 31.84999904 -13.03125 31.69140625 C-17.95677674 31.0601283 -20.64594857 28.34446378 -23.8125 24.75 C-27.4553406 19.62303916 -27.06228321 14.51191958 -26.5 8.375 C-24.5569102 4.02247884 -21.9838434 1.27679207 -17.69140625 -0.9296875 C-11.75173303 -2.8142897 -5.61618375 -2.60751388 0 0 Z " fill="#24268A" transform="translate(292.5,374.625)"/>
<path d="M0 0 C3.9166043 -0.0580966 7.83309763 -0.09362893 11.75 -0.125 C12.86117187 -0.14175781 13.97234375 -0.15851563 15.1171875 -0.17578125 C16.72207031 -0.18544922 16.72207031 -0.18544922 18.359375 -0.1953125 C19.34389648 -0.20578613 20.32841797 -0.21625977 21.34277344 -0.22705078 C24.10911549 0.00932354 25.71082222 0.44583742 28 2 C29.0625 4.8125 29.0625 4.8125 29 8 C26.5625 10.875 26.5625 10.875 24 13 C25.47390116 16.85207985 27.20195851 20.50755922 29.0625 24.1875 C29.58972656 25.23292969 30.11695313 26.27835937 30.66015625 27.35546875 C31.10230469 28.22816406 31.54445312 29.10085938 32 30 C32.495 30.99 32.495 30.99 33 32 C28.38 32 23.76 32 19 32 C18.896875 30.96875 18.79375 29.9375 18.6875 28.875 C18.00047817 25.00269516 17.06267628 22.33201553 15 19 C14.01 18.67 13.02 18.34 12 18 C12.33 22.62 12.66 27.24 13 32 C8.71 32 4.42 32 0 32 C0 31.34 0 30.68 0 30 C0.66 30 1.32 30 2 30 C1.86138974 25.56224325 1.71288136 21.12487223 1.5625 16.6875 C1.52318359 15.42486328 1.48386719 14.16222656 1.44335938 12.86132812 C1.40146484 11.65283203 1.35957031 10.44433594 1.31640625 9.19921875 C1.27974854 8.08377686 1.24309082 6.96833496 1.20532227 5.8190918 C1.11068791 2.92126429 1.11068791 2.92126429 0 0 Z " fill="#2B2D8E" transform="translate(201,373)"/>
<path d="M0 0 C0.495 0.99 0.495 0.99 1 2 C0.31437683 3.85899353 0.31437683 3.85899353 -0.83911133 6.14819336 C-1.26738724 7.00767075 -1.69566315 7.86714813 -2.13691711 8.75267029 C-2.85224861 10.15707115 -2.85224861 10.15707115 -3.58203125 11.58984375 C-4.07023849 12.56297012 -4.55844574 13.5360965 -5.06144714 14.53871155 C-6.63771452 17.6754375 -8.22515757 20.80636661 -9.8125 23.9375 C-10.84118494 25.98337709 -11.86918748 28.02959745 -12.89648438 30.07617188 C-18.0368585 40.29411831 -23.27014038 50.45609664 -28.62701416 60.56208801 C-31.9436686 66.84012601 -35.05495892 73.19232719 -38.0625 79.625 C-38.98903904 81.59722264 -39.91732175 83.56862741 -40.84765625 85.5390625 C-41.23961182 86.37646973 -41.63156738 87.21387695 -42.03540039 88.07666016 C-43 90 -43 90 -44 91 C-45.62853535 90.93579251 -47.25449212 90.7987936 -48.875 90.625 C-49.75929688 90.53476563 -50.64359375 90.44453125 -51.5546875 90.3515625 C-54 90 -54 90 -57 89 C-56.38213604 85.92518806 -55.38307942 83.75739541 -53.65625 81.1484375 C-53.16036377 80.39264404 -52.66447754 79.63685059 -52.15356445 78.8581543 C-51.33505005 77.62899292 -51.33505005 77.62899292 -50.5 76.375 C-49.31636074 74.57685287 -48.13276946 72.77867416 -46.94921875 70.98046875 C-45.99474854 69.53679932 -45.99474854 69.53679932 -45.02099609 68.06396484 C-42.53842438 64.30022058 -40.07515485 60.52406924 -37.61257935 56.7472229 C-31.65844256 47.61617838 -25.69350414 38.49325661 -19.62011719 29.44091797 C-15.46883688 23.23889807 -11.42116954 16.96932553 -7.37597656 10.69775391 C-6.85100586 9.88612793 -6.32603516 9.07450195 -5.78515625 8.23828125 C-5.31988525 7.51680908 -4.85461426 6.79533691 -4.37524414 6.05200195 C-2.98486143 3.97741173 -1.51614864 1.98403027 0 0 Z " fill="#E30A18" transform="translate(312,95)"/>
<path d="M0 0 C4.62 0 9.24 0 14 0 C14.0928125 1.27101563 14.185625 2.54203125 14.28125 3.8515625 C14.89183265 9.34035658 16.58676441 14.21925269 18.5 19.375 C18.82097656 20.26316406 19.14195312 21.15132813 19.47265625 22.06640625 C20.06381148 23.70135859 20.65901257 25.3348585 21.25976562 26.96630859 C21.86699003 28.63457354 22.43858844 30.31576531 23 32 C18.05 32 13.1 32 8 32 C8.33 29.69 8.66 27.38 9 25 C5.33708062 22.52214277 2.3890815 21.51035831 -2 21 C-2 24.63 -2 28.26 -2 32 C-4.97 32 -7.94 32 -11 32 C-10.41734375 30.87980469 -9.8346875 29.75960938 -9.234375 28.60546875 C-6.91087966 23.95335574 -5.04367666 19.18929899 -3.25 14.3125 C-2.93417969 13.48427734 -2.61835938 12.65605469 -2.29296875 11.80273438 C-1.99519531 10.99771484 -1.69742188 10.19269531 -1.390625 9.36328125 C-0.9889209 8.28494019 -0.9889209 8.28494019 -0.57910156 7.18481445 C0.21350851 4.57119234 0.21350851 4.57119234 0 0 Z " fill="#24278B" transform="translate(174,373)"/>
<path d="M0 0 C3.05805533 6.3607551 3.05805533 6.3607551 2.82177734 8.96240234 C1.65829768 11.8472512 0.2160372 12.25350865 -2.58984375 13.5234375 C-3.58628906 13.98081299 -4.58273438 14.43818848 -5.609375 14.90942383 C-7.25679687 15.63488403 -7.25679687 15.63488403 -8.9375 16.375 C-10.63326172 17.13816528 -10.63326172 17.13816528 -12.36328125 17.91674805 C-22.34477207 22.36347538 -32.41344972 26.6105185 -42.5 30.8125 C-43.25868378 31.13071716 -44.01736755 31.44893433 -44.79904175 31.77679443 C-46.95632046 32.67886484 -49.11784471 33.56977146 -51.28125 34.45703125 C-51.93219131 34.73034775 -52.58313263 35.00366425 -53.25379944 35.28526306 C-54.81287026 35.91687706 -56.40460813 36.46674319 -58 37 C-58.66 36.67 -59.32 36.34 -60 36 C-45.27669003 26.22837165 -30.26722312 16.97352382 -15.12011719 7.87939453 C-13.07883415 6.64983297 -11.04277237 5.41155065 -9.01269531 4.16357422 C-8.11389648 3.61330566 -7.21509766 3.06303711 -6.2890625 2.49609375 C-5.5048291 2.01197021 -4.7205957 1.52784668 -3.91259766 1.02905273 C-2 0 -2 0 0 0 Z " fill="#E30C18" transform="translate(245,192)"/>
<path d="M0 0 C5.94 0 11.88 0 18 0 C17 3 17 3 14 5 C13.75694082 7.47536079 13.69941323 9.69819707 13.77734375 12.16796875 C13.78633194 12.88100662 13.79532013 13.59404449 13.80458069 14.32868958 C13.83465505 16.61544922 13.88437421 18.90116784 13.9375 21.1875 C13.98551772 23.45591518 14.02891798 25.72403455 14.05970764 27.99275208 C14.07926368 29.40430174 14.10865857 30.81576235 14.14964294 32.22685242 C14.23680601 38.02080887 13.34596135 42.91143928 10.1875 47.8125 C7.8763456 50.1236544 6.10038722 51.05265946 3 52 C2.67 51.525625 2.34 51.05125 2 50.5625 C-1.09813267 48.14208385 -4.12026792 48.31801083 -8 48 C-8 47.67 -8 47.34 -8 47 C-7.09507813 46.96132813 -7.09507813 46.96132813 -6.171875 46.921875 C-0.95546103 46.5965201 -0.95546103 46.5965201 3.5 44.0625 C6.32535395 40.17763831 6.15409397 36.96906724 6.125 32.3125 C6.12234131 31.55880127 6.11968262 30.80510254 6.11694336 30.02856445 C6.4311959 16.79057469 6.4311959 16.79057469 4 4 C2.0162233 2.71563266 2.0162233 2.71563266 0 2 C0 1.34 0 0.68 0 0 Z " fill="#E52A1D" transform="translate(132,311)"/>
<path d="M0 0 C4.62 0 9.24 0 14 0 C14 0.66 14 1.32 14 2 C13.34 2 12.68 2 12 2 C12.33 10.58 12.66 19.16 13 28 C19.73906421 27.76386957 19.73906421 27.76386957 22.375 24.5625 C23.97342069 22.13759832 23.97342069 22.13759832 25 20 C25.66 20 26.32 20 27 20 C26.68950274 21.43793392 26.3765224 22.8753318 26.0625 24.3125 C25.80146484 25.51326172 25.80146484 25.51326172 25.53515625 26.73828125 C25 29 25 29 24 32 C16.08 32 8.16 32 0 32 C0.495 30.515 0.495 30.515 1 29 C1.09447646 27.043446 1.13071717 25.08383255 1.1328125 23.125 C1.13410156 21.97515625 1.13539063 20.8253125 1.13671875 19.640625 C1.13091797 17.83851563 1.13091797 17.83851563 1.125 16 C1.12886719 14.79859375 1.13273438 13.5971875 1.13671875 12.359375 C1.13542969 11.20953125 1.13414062 10.0596875 1.1328125 8.875 C1.13168457 7.82054687 1.13055664 6.76609375 1.12939453 5.6796875 C1.11597653 2.89775656 1.11597653 2.89775656 0 0 Z " fill="#282A8C" transform="translate(237,373)"/>
<path d="M0 0 C4.62 0 9.24 0 14 0 C13.67 0.99 13.34 1.98 13 3 C12.88607564 4.71380326 12.82198817 6.4311675 12.7890625 8.1484375 C12.74652344 9.65664063 12.74652344 9.65664063 12.703125 11.1953125 C12.65123788 13.30711828 12.60690874 15.41912391 12.5703125 17.53125 C12.27131192 27.27368546 12.27131192 27.27368546 9 31 C4.56291366 33.16694914 -0.1253508 33.77921902 -5 33 C-7.81371647 31.89564029 -10.40530668 30.54577474 -13 29 C-11.8905928 25.51329166 -10.73662334 22.22515763 -9 19 C-8.34 19 -7.68 19 -7 19 C-6.34 21.97 -5.68 24.94 -5 28 C-3.33388095 28.042721 -1.66617115 28.04063832 0 28 C1.7059965 26.2940035 1.13013541 24.08649836 1.1328125 21.7578125 C1.13410156 20.69175781 1.13539063 19.62570312 1.13671875 18.52734375 C1.13285156 17.40457031 1.12898438 16.28179687 1.125 15.125 C1.12886719 14.00996094 1.13273437 12.89492188 1.13671875 11.74609375 C1.13542969 10.67746094 1.13414062 9.60882813 1.1328125 8.5078125 C1.13168457 7.52441895 1.13055664 6.54102539 1.12939453 5.52783203 C1.10645973 2.87385148 1.10645973 2.87385148 0 0 Z " fill="#282A8C" transform="translate(315,373)"/>
<path d="M0 0 C4.62 0 9.24 0 14 0 C14 0.66 14 1.32 14 2 C13.34 2 12.68 2 12 2 C12.11817917 5.95121228 12.24242233 9.90218229 12.37231445 13.85302734 C12.43698251 15.85894807 12.49683106 17.86502228 12.55664062 19.87109375 C12.61948242 21.75634766 12.61948242 21.75634766 12.68359375 23.6796875 C12.72025146 24.84226074 12.75690918 26.00483398 12.79467773 27.20263672 C12.81821659 29.9535501 12.81821659 29.9535501 14 32 C9.38 32 4.76 32 0 32 C0.33 31.34 0.66 30.68 1 30 C1.09720918 28.00317661 1.1307655 26.00309335 1.1328125 24.00390625 C1.13410156 22.80572266 1.13539063 21.60753906 1.13671875 20.37304688 C1.13285156 19.11556641 1.12898438 17.85808594 1.125 16.5625 C1.12886719 15.30888672 1.13273437 14.05527344 1.13671875 12.76367188 C1.13542969 11.56419922 1.13414062 10.36472656 1.1328125 9.12890625 C1.13168457 8.02619385 1.13055664 6.92348145 1.12939453 5.78735352 C1.12262441 2.91471461 1.12262441 2.91471461 0 0 Z " fill="#26288B" transform="translate(335,373)"/>
<path d="M0 0 C5.28 0 10.56 0 16 0 C16 0.66 16 1.32 16 2 C15.35546875 2.23460937 14.7109375 2.46921875 14.046875 2.7109375 C11.7922092 3.81161073 11.7922092 3.81161073 11.390625 6.1640625 C11.32101563 7.38222656 11.32101563 7.38222656 11.25 8.625 C11.19328125 9.44226563 11.1365625 10.25953125 11.078125 11.1015625 C11.05234375 11.72804688 11.0265625 12.35453125 11 13 C11.99 13.33 12.98 13.66 14 14 C14 14.66 14 15.32 14 16 C13.34 16 12.68 16 12 16 C12.33 20.95 12.66 25.9 13 31 C8.71 31 4.42 31 0 31 C0 30.34 0 29.68 0 29 C0.66 29 1.32 29 2 29 C1.86164197 24.54140138 1.71305421 20.08320214 1.5625 15.625 C1.52318359 14.35398437 1.48386719 13.08296875 1.44335938 11.7734375 C1.40146484 10.56171875 1.35957031 9.35 1.31640625 8.1015625 C1.27974854 6.98088379 1.24309082 5.86020508 1.20532227 4.70556641 C1.17403987 2.03287229 1.17403987 2.03287229 0 0 Z " fill="#202389" transform="translate(201,374)"/>
<path d="M0 0 C2.96482674 0.13789892 5.21234484 0.28944336 7.4765625 2.33203125 C11.12674974 6.71865978 12.16689255 9.19582165 12.25 14.8125 C12.27578125 15.85019531 12.3015625 16.88789063 12.328125 17.95703125 C11.82027333 22.66675094 9.94318685 25.17183594 6.4375 28.25 C2.75913489 30.89087752 0.87420035 31.11481628 -3.625 31.0625 C-4.62789063 31.05347656 -5.63078125 31.04445313 -6.6640625 31.03515625 C-7.43492187 31.02355469 -8.20578125 31.01195312 -9 31 C-6.56031979 27.34047969 -5.04232679 27.34744226 -1 26 C1.35779354 22.46330969 1.26931688 20.87443306 1.25 16.6875 C1.25515625 15.57761719 1.2603125 14.46773438 1.265625 13.32421875 C0.99363456 9.9203384 0.21230021 7.17988268 -1 4 C-0.34 3.34 0.32 2.68 1 2 C0.67 1.34 0.34 0.68 0 0 Z " fill="#23268A" transform="translate(287,374)"/>
<path d="M0 0 C2.57244338 0.9894013 3.76897699 1.76842009 5.4375 3.9375 C6.5441598 7.25747939 6.63990272 9.88056627 6.6875 13.375 C6.72617187 15.07462891 6.72617187 15.07462891 6.765625 16.80859375 C6.40845254 20.21448831 5.86607896 21.56579643 3.4375 23.9375 C0.5 24.5625 0.5 24.5625 -2.5625 23.9375 C-5.91294775 20.93973096 -6.43854315 19.03034407 -6.9453125 14.5625 C-7.24942402 4.83093145 -7.24942402 4.83093145 -4.69140625 1.50390625 C-2.5625 -0.0625 -2.5625 -0.0625 0 0 Z " fill="#F7F7F9" transform="translate(282.5625,377.0625)"/>
<path d="M0 0 C1.125 1.5 1.125 1.5 2 4 C1.54828403 6.00045644 1.08878095 8.0012963 0.5234375 9.97265625 C-0.18822946 12.72903798 -0.26297667 15.17300079 0 18 C0.66 18.99 1.32 19.98 2 21 C-3.61 21 -9.22 21 -15 21 C-14.0925 20.071875 -13.185 19.14375 -12.25 18.1875 C-8.34994423 13.69596658 -6.72634441 8.61569683 -5 3 C-4.67 3.66 -4.34 4.32 -4 5 C-3.34 5 -2.68 5 -2 5 C-2 4.01 -2 3.02 -2 2 C-1.34 2 -0.68 2 0 2 C0 1.34 0 0.68 0 0 Z " fill="#E32418" transform="translate(377,342)"/>
<path d="M0 0 C0.33 0.66 0.66 1.32 1 2 C-0.03113033 4.60290326 -1.12658088 7.08007808 -2.33984375 9.59765625 C-2.69961807 10.34712021 -3.0593924 11.09658417 -3.43006897 11.86875916 C-4.19799027 13.45561885 -4.97088205 15.04008118 -5.74829102 16.62231445 C-6.92842416 19.04387693 -8.0664634 21.48252959 -9.20507812 23.92382812 C-9.95579527 25.46217867 -10.7089731 26.99933132 -11.46484375 28.53515625 C-11.79854477 29.26742935 -12.13224579 29.99970245 -12.47605896 30.75416565 C-14.97225677 35.66084185 -14.97225677 35.66084185 -18.06472778 36.68136597 C-20.28344727 36.96655273 -20.28344727 36.96655273 -24 37 C-21.10856697 31.83720815 -18.03748864 26.83542388 -14.8125 21.875 C-14.33707764 21.141604 -13.86165527 20.40820801 -13.37182617 19.65258789 C-9.04503677 13.00923991 -4.56524829 6.48152535 0 0 Z " fill="#E2111C" transform="translate(312,95)"/>
<path d="M0 0 C-2.33127764 2.33127764 -4.21051901 3.012347 -7.27734375 4.20703125 C-8.88512695 4.8402832 -8.88512695 4.8402832 -10.52539062 5.48632812 C-12.21438477 6.1427832 -12.21438477 6.1427832 -13.9375 6.8125 C-22.07113495 9.98812475 -30.09038939 13.29760797 -38 17 C-38.33 16.01 -38.66 15.02 -39 14 C-39.99 13.34 -40.98 12.68 -42 12 C-32.25028618 8.49375062 -22.49063709 5.03398447 -12.5625 2.0625 C-11.5271814 1.74599487 -11.5271814 1.74599487 -10.47094727 1.4230957 C-6.89044174 0.3756523 -3.73329819 -0.23737734 0 0 Z " fill="#292B8B" transform="translate(292,92)"/>
<path d="M0 0 C0.144375 0.639375 0.28875 1.27875 0.4375 1.9375 C0.81007181 3.97545146 0.81007181 3.97545146 2 5 C2.66 4.01 3.32 3.02 4 2 C4.66 2 5.32 2 6 2 C6.33 4.97 6.66 7.94 7 11 C6.01 11.66 5.02 12.32 4 13 C4 13.33 4 13.66 4 14 C2.35 14 0.7 14 -1 14 C-1 17.63 -1 21.26 -1 25 C-3.97 25 -6.94 25 -10 25 C-9.40703125 23.865625 -8.8140625 22.73125 -8.203125 21.5625 C-5.99999034 17.15623067 -4.33256032 12.6588638 -2.75 8 C-2.3478125 6.83791016 -2.3478125 6.83791016 -1.9375 5.65234375 C-1.28678233 3.76991049 -0.64267935 1.88519275 0 0 Z " fill="#323390" transform="translate(173,380)"/>
<path d="M0 0 C0.33 1.98 0.66 3.96 1 6 C-8.7351767 8.10084738 -18.10386916 8.21105492 -28 8 C-25.2830507 6.18870047 -23.72621415 5.52300784 -20.65625 4.74609375 C-19.82222656 4.53146484 -18.98820313 4.31683594 -18.12890625 4.09570312 C-17.26136719 3.87849609 -16.39382812 3.66128906 -15.5 3.4375 C-13.78105492 2.99946273 -12.06229677 2.56069111 -10.34375 2.12109375 C-9.58255859 1.9295874 -8.82136719 1.73808105 -8.03710938 1.54077148 C-2.23295711 0 -2.23295711 0 0 0 Z " fill="#232589" transform="translate(230,277)"/>
<path d="M0 0 C2.58110119 2.26298228 3.64929044 4.18004885 4.6875 7.4375 C5.06455078 8.58025391 5.06455078 8.58025391 5.44921875 9.74609375 C6 12 6 12 6 16 C1.545 15.01 1.545 15.01 -3 14 C-4.07010304 11.23556715 -4.16283213 9.46148633 -3.17578125 6.6640625 C-2.16488321 4.41525773 -1.11596524 2.19840363 0 0 Z " fill="#FAE9E6" transform="translate(387,325)"/>
<path d="M0 0 C2.778721 2.37397732 3.69551959 4.44719854 4.6875 7.9375 C5.06455078 9.21947266 5.06455078 9.21947266 5.44921875 10.52734375 C6 13 6 13 6 17 C2.7 16.01 -0.6 15.02 -4 14 C-3.46148032 8.72250715 -2.22656164 4.74354436 0 0 Z " fill="#FAEBE7" transform="translate(241,324)"/>
<path d="M0 0 C0.66 0 1.32 0 2 0 C2.66 3.96 3.32 7.92 4 12 C6.97 12 9.94 12 13 12 C12.67 12.66 12.34 13.32 12 14 C5.49686791 14.46450943 1.5825192 13.32575612 -4 10 C-2.8905928 6.51329166 -1.73662334 3.22515763 0 0 Z " fill="#333590" transform="translate(306,392)"/>
<path d="M0 0 C0.66 0 1.32 0 2 0 C1.68950274 1.43793392 1.3765224 2.8753318 1.0625 4.3125 C0.80146484 5.51326172 0.80146484 5.51326172 0.53515625 6.73828125 C0 9 0 9 -1 12 C-8.92 12 -16.84 12 -25 12 C-24.67 11.34 -24.34 10.68 -24 10 C-18.72 10 -13.44 10 -8 10 C-8 9.34 -8 8.68 -8 8 C-7.236875 7.566875 -6.47375 7.13375 -5.6875 6.6875 C-2.66953976 4.79250171 -1.72895662 3.04625691 0 0 Z " fill="#383890" transform="translate(262,393)"/>
<path d="M0 0 C0.33 0.66 0.66 1.32 1 2 C-0.12286848 5.14642259 -1.74164479 8.08475925 -3.25 11.0625 C-3.65863281 11.90361328 -4.06726563 12.74472656 -4.48828125 13.61132812 C-4.88917969 14.41119141 -5.29007812 15.21105469 -5.703125 16.03515625 C-6.07083008 16.7712915 -6.43853516 17.50742676 -6.81738281 18.26586914 C-8 20 -8 20 -11 21 C-11.33 20.01 -11.66 19.02 -12 18 C-10.66518711 15.56957741 -9.30132006 13.34704276 -7.75 11.0625 C-7.34136719 10.44181641 -6.93273437 9.82113281 -6.51171875 9.18164062 C-4.43485571 6.04631201 -2.29900072 2.97825094 0 0 Z " fill="#E1121B" transform="translate(312,95)"/>
<path d="M0 0 C1.98 0 3.96 0 6 0 C6.75 2.25 6.75 2.25 7 5 C5.25 7.3125 5.25 7.3125 3 9 C2.01 9 1.02 9 0 9 C0 6.03 0 3.06 0 0 Z " fill="#F4F4F8" transform="translate(213,377)"/>
<path d="M0 0 C0.66 0 1.32 0 2 0 C2.99 2.64 3.98 5.28 5 8 C2.03 8 -0.94 8 -4 8 C-2.68 5.36 -1.36 2.72 0 0 Z " fill="#242688" transform="translate(167,397)"/>
<path d="M0 0 C0.99 0 1.98 0 3 0 C3 0.99 3 1.98 3 3 C-5.58 3 -14.16 3 -23 3 C-23 2.67 -23 2.34 -23 2 C-22.00818726 1.96241577 -22.00818726 1.96241577 -20.99633789 1.92407227 C-18.01817695 1.80846898 -15.0403608 1.68558246 -12.0625 1.5625 C-10.50112305 1.50352539 -10.50112305 1.50352539 -8.90820312 1.44335938 C-7.42416992 1.38051758 -7.42416992 1.38051758 -5.91015625 1.31640625 C-4.53549194 1.26141968 -4.53549194 1.26141968 -3.13305664 1.20532227 C-1.0179272 1.22996136 -1.0179272 1.22996136 0 0 Z " fill="#E13326" transform="translate(272,361)"/>
<path d="M0 0 C0.33 1.98 0.66 3.96 1 6 C-6.50769231 5.38461538 -6.50769231 5.38461538 -9 3.4375 C-9.33 2.963125 -9.66 2.48875 -10 2 C-3.375 0 -3.375 0 0 0 Z " fill="#343691" transform="translate(230,277)"/>
<path d="M0 0 C4.62 0 9.24 0 14 0 C14 0.66 14 1.32 14 2 C10.04 2 6.08 2 2 2 C1.67 3.32 1.34 4.64 1 6 C0.67 4.02 0.34 2.04 0 0 Z " fill="#454596" transform="translate(174,373)"/>
<path d="M0 0 C-2.52475462 2.52475462 -4.73497997 3.04307871 -8.125 4.125 C-9.22070312 4.47820312 -10.31640625 4.83140625 -11.4453125 5.1953125 C-12.28835938 5.46085937 -13.13140625 5.72640625 -14 6 C-14 5.34 -14 4.68 -14 4 C-14.66 3.67 -15.32 3.34 -16 3 C-14.27318563 2.49193553 -12.54342021 1.99389533 -10.8125 1.5 C-9.84957031 1.2215625 -8.88664062 0.943125 -7.89453125 0.65625 C-5.14654124 0.03322392 -2.80401584 -0.12302812 0 0 Z " fill="#464696" transform="translate(292,92)"/>
<path d="M0 0 C0.66 0 1.32 0 2 0 C2.33 2.97 2.66 5.94 3 9 C1.35 8.67 -0.3 8.34 -2 8 C-1.125 1.125 -1.125 1.125 0 0 Z " fill="#E6E6F1" transform="translate(177,382)"/>
<path d="M0 0 C1.3921875 0.2784375 1.3921875 0.2784375 2.8125 0.5625 C3.534375 0.706875 4.25625 0.85125 5 1 C5 1.33 5 1.66 5 2 C-0.61 2 -6.22 2 -12 2 C-7.5504932 -0.96633787 -5.15649127 -1.2576808 0 0 Z " fill="#393990" transform="translate(214,283)"/>
<path d="M0 0 C0.6875 1.75 0.6875 1.75 1 4 C-0.4600074 6.43334567 -1.45235564 7.72617782 -4 9 C-4.33 8.34 -4.66 7.68 -5 7 C-6.89533342 6.53476937 -6.89533342 6.53476937 -9.0625 6.375 C-10.361875 6.25125 -11.66125 6.1275 -13 6 C-13 5.67 -13 5.34 -13 5 C-12.09507813 4.96132813 -12.09507813 4.96132813 -11.171875 4.921875 C-5.89464661 4.59668017 -5.89464661 4.59668017 -1.4375 1.9375 C-0.963125 1.298125 -0.48875 0.65875 0 0 Z " fill="#E44134" transform="translate(137,353)"/>
<path d="M0 0 C0.66 0.66 1.32 1.32 2 2 C0.5977422 4.8045156 -1.06070622 5.0442118 -3.9375 6.1875 C-4.83339844 6.55230469 -5.72929687 6.91710937 -6.65234375 7.29296875 C-9 8 -9 8 -11 7 C-7.37 4.69 -3.74 2.38 0 0 Z " fill="#DF2329" transform="translate(196,221)"/>
<path d="M0 0 C2.31 0.66 4.62 1.32 7 2 C7 2.33 7 2.66 7 3 C5.02 3.66 3.04 4.32 1 5 C3.64 5.33 6.28 5.66 9 6 C9 6.33 9 6.66 9 7 C5.7 7 2.4 7 -1 7 C-0.67 4.69 -0.34 2.38 0 0 Z " fill="#4C4E9C" transform="translate(278,399)"/>
<path d="M0 0 C-0.33 0.99 -0.66 1.98 -1 3 C-1.99 3 -2.98 3 -4 3 C-3.67 4.32 -3.34 5.64 -3 7 C-4.98 7.33 -6.96 7.66 -9 8 C-8.875 6.25 -8.875 6.25 -8 4 C-2.77777778 0 -2.77777778 0 0 0 Z " fill="#E1171E" transform="translate(205,216)"/>
<path d="M0 0 C0 0.99 0 1.98 0 3 C-2.97 3 -5.94 3 -9 3 C-7 0 -7 0 -4.5 -0.75 C-2 -1 -2 -1 0 0 Z " fill="#181B85" transform="translate(287,402)"/>
<path d="M0 0 C0.66 0 1.32 0 2 0 C1.34 2.97 0.68 5.94 0 9 C-1.32 8.34 -2.64 7.68 -4 7 C-2.68 4.69 -1.36 2.38 0 0 Z " fill="#454597" transform="translate(262,393)"/>
<path d="M0 0 C1.98362069 2.91708924 1.9876191 4.12380904 1.625 7.75 C1.41875 8.8225 1.2125 9.895 1 11 C0.34 11 -0.32 11 -1 11 C-1.14285714 3.57142857 -1.14285714 3.57142857 0 0 Z " fill="#E4362A" transform="translate(164,317)"/>
<path d="M0 0 C0.33 0.66 0.66 1.32 1 2 C0.22265625 3.9453125 0.22265625 3.9453125 -0.9375 6.125 C-1.31777344 6.84945312 -1.69804687 7.57390625 -2.08984375 8.3203125 C-2.39019531 8.87460938 -2.69054687 9.42890625 -3 10 C-3.99 9.34 -4.98 8.68 -6 8 C-4.02 5.36 -2.04 2.72 0 0 Z " fill="#DE3335" transform="translate(312,95)"/>
<path d="M0 0 C0.99 0.33 1.98 0.66 3 1 C3 2.32 3 3.64 3 5 C1.35 5 -0.3 5 -2 5 C-1.34 3.35 -0.68 1.7 0 0 Z " fill="#1D2086" transform="translate(258,400)"/>
<path d="M0 0 C0.33 0 0.66 0 1 0 C0.67 2.31 0.34 4.62 0 7 C-1.32 7.33 -2.64 7.66 -4 8 C-2.25 2.25 -2.25 2.25 0 0 Z " fill="#E30612" transform="translate(302,112)"/>
<path d="M0 0 C0.33 1.32 0.66 2.64 1 4 C-0.32 4.33 -1.64 4.66 -3 5 C-3.66 3.68 -4.32 2.36 -5 1 C-3 0 -3 0 0 0 Z " fill="#373892" transform="translate(269,98)"/>
<path d="M0 0 C0.66 0 1.32 0 2 0 C2 1.98 2 3.96 2 6 C0.68 6 -0.64 6 -2 6 C-1.34 4.02 -0.68 2.04 0 0 Z " fill="#3E3E93" transform="translate(306,392)"/>
<path d="M0 0 C0.99 0 1.98 0 3 0 C3 2.31 3 4.62 3 7 C2.34 7 1.68 7 1 7 C0.67 4.69 0.34 2.38 0 0 Z " fill="#4E4E9C" transform="translate(145,247)"/>
<path d="M0 0 C0.33 0.66 0.66 1.32 1 2 C-0.25 4.5625 -0.25 4.5625 -2 7 C-2.99 7.33 -3.98 7.66 -5 8 C-3.62845496 5.04590299 -2.01136276 2.55991624 0 0 Z " fill="#373891" transform="translate(340,192)"/>
</svg>
